<?xml version="1.0" encoding="UTF-8" standalone="no"?>
<svg
   xmlns:dc="http://purl.org/dc/elements/1.1/"
   xmlns:cc="http://creativecommons.org/ns#"
   xmlns:rdf="http://www.w3.org/1999/02/22-rdf-syntax-ns#"
   xmlns:svg="http://www.w3.org/2000/svg"
   xmlns="http://www.w3.org/2000/svg"
   xmlns:sodipodi="http://sodipodi.sourceforge.net/DTD/sodipodi-0.dtd"
   xmlns:inkscape="http://www.inkscape.org/namespaces/inkscape"
   version="1.0"
   width="127.47882pt"
   height="127.47882pt"
   viewBox="0 0 127.47882 127.47882"
   preserveAspectRatio="xMidYMid meet"
   id="svg10"
   sodipodi:docname="a8bdf79968cfe953b9a19ee239188315.svg"
   inkscape:export-filename="C:\Users\miche\Downloads\circle4550.png"
   inkscape:export-xdpi="595.88379"
   inkscape:export-ydpi="595.88379"
   inkscape:version="0.92.4 (5da689c313, 2019-01-14)">
  <metadata
     id="metadata16">
    <rdf:RDF>
      <cc:Work
         rdf:about="">
        <dc:format>image/svg+xml</dc:format>
        <dc:type
           rdf:resource="http://purl.org/dc/dcmitype/StillImage" />
        <dc:title></dc:title>
      </cc:Work>
    </rdf:RDF>
  </metadata>
  <defs
     id="defs14" />
  <sodipodi:namedview
     pagecolor="#ffffff"
     bordercolor="#666666"
     borderopacity="1"
     objecttolerance="10"
     gridtolerance="10"
     guidetolerance="10"
     inkscape:pageopacity="0"
     inkscape:pageshadow="2"
     inkscape:window-width="2400"
     inkscape:window-height="1284"
     id="namedview12"
     showgrid="false"
     fit-margin-top="0"
     fit-margin-left="0"
     fit-margin-right="0"
     fit-margin-bottom="0"
     inkscape:zoom="2.7230769"
     inkscape:cx="87.715388"
     inkscape:cy="60.671301"
     inkscape:window-x="2391"
     inkscape:window-y="-9"
     inkscape:window-maximized="1"
     inkscape:current-layer="g8" />
  <g
     transform="matrix(0.1,0,0,-0.1,-161.25212,225.87077)"
     id="g8"
     style="fill:#000000;stroke:none">
    <circle
       style="fill:#070000;fill-opacity:1;stroke:#000000;stroke-width:60;stroke-linejoin:bevel;stroke-miterlimit:4;stroke-dasharray:none;stroke-opacity:1"
       id="circle4557"
       cx="2249.9153"
       cy="-1621.3136"
       r="581.1441"
       transform="scale(1,-1)" />
    <g
       id="g4561"
       transform="translate(29.999997,30)">
      <path
         style="fill:#07a10b;fill-opacity:1"
         inkscape:connector-curvature="0"
         id="path4"
         d="m 2084,1363 c -10,-16 -7,-19 25,-28 29,-9 37,-17 41,-40 5,-28 6,-29 18,-10 11,19 11,19 13,-5 1,-25 1,-24 14,5 10,22 14,25 15,11 0,-11 3,-17 6,-13 16,15 -8,59 -39,72 -61,25 -81,27 -93,8 z" />
      <path
         transform="matrix(7.5,0,0,-7.5,0,2600)"
         inkscape:connector-curvature="0"
         id="path2"
         d="m 223.08594,139.16797 a 77.48588,77.48588 0 0 0 0.54492,4.49414 77.48588,77.48588 0 0 0 1.69531,7.55664 77.48588,77.48588 0 0 0 2.44336,7.34961 77.48588,77.48588 0 0 0 3.16406,7.07031 77.48588,77.48588 0 0 0 3.85352,6.71875 77.48588,77.48588 0 0 0 4.50391,6.30078 77.48588,77.48588 0 0 0 5.11328,5.81836 77.48588,77.48588 0 0 0 5.66601,5.2793 77.48588,77.48588 0 0 0 3.07227,2.33594 c 2.15191,-2.0709 4.18504,-4.29568 5.39062,-6.22461 2.93334,-4.8 4.13438,-5.73386 7.73438,-5.86719 6.8,0 8.39987,1.19987 8.5332,6.5332 0,4.4 0.13346,4.53386 1.4668,1.86719 1.33333,-2.8 1.59922,-2.93463 3.19922,-0.66797 1.6,2.13334 1.73385,2.00026 1.86718,-1.0664 0,-2.66667 0.26537,-2.93204 1.33204,-1.33204 1.06666,1.73334 1.33398,1.59961 1.33398,-0.40039 0,-2.66666 -3.33307,-6.00117 -9.06641,-9.20117 -2.4,-1.2 -4.26757,-3.19844 -4.26757,-4.39844 0,-2 10.26718,-16.1332 17.86718,-24.5332 6.13334,-6.66667 10.79948,-8.13476 26.13282,-8.13476 15.2,0 16.80052,-0.79896 19.86718,-10.26563 2.4,-7.2 1.33373,-8.53372 -9.59961,-12.40039 -4.53333,-1.73333 -9.73294,-4.4 -11.59961,-6 -1.86666,-1.73333 -6.00065,-3.33242 -9.33398,-3.73242 -3.33333,-0.53334 -7.46732,-1.0668 -9.33398,-1.4668 -1.86667,-0.26667 -4.53334,-0.26719 -6,0.13281 -4.13334,1.06667 -11.06589,6.79883 -13.19922,10.79883 -2.66667,5.06667 -9.73282,8.66758 -28.13282,14.26758 -11.20982,3.36943 -18.1125,5.79209 -24.24804,9.16797 z"
         style="fill:#07a10b;fill-opacity:1;stroke-width:0.13333334" />
    </g>
    <circle
       transform="scale(1,-1)"
       r="581.1441"
       cy="-1621.3136"
       cx="2249.9153"
       id="circle4550"
       style="fill:none;fill-opacity:1;stroke:#07a10b;stroke-width:112.5;stroke-linejoin:bevel;stroke-miterlimit:4;stroke-dasharray:none;stroke-opacity:1;paint-order:normal" />
  </g>
</svg>
